<svg width="58" height="32" viewBox="0 0 58 32" fill="none" xmlns="http://www.w3.org/2000/svg">
<rect x="0.5" y="0.5" width="57" height="31" rx="15.5" stroke="#333333"/>
<path d="M26 16C26 21.5228 21.5228 26 16 26M26 16C26 10.4772 21.5228 6 16 6M26 16C26 14.3431 21.5228 13 16 13C10.4772 13 6 14.3431 6 16M26 16C26 17.6569 21.5228 19 16 19C10.4772 19 6 17.6569 6 16M16 26C10.4772 26 6 21.5228 6 16M16 26C18.2091 26 20 21.5228 20 16C20 10.4772 18.2091 6 16 6M16 26C13.7909 26 12 21.5228 12 16C12 10.4772 13.7909 6 16 6M6 16C6 10.4772 10.4772 6 16 6" stroke="#333333" stroke-width="1.5"/>
<path d="M31.4091 21.5V9.86364H38.4318V11.1136H32.8182V15.0455H38.0682V16.2955H32.8182V20.25H38.5227V21.5H31.4091ZM50.1989 9.86364V21.5H48.8352L42.4943 12.3636H42.3807V21.5H40.9716V9.86364H42.3352L48.6989 19.0227H48.8125V9.86364H50.1989Z" fill="#333333"/>
</svg>
