<svg width="24" height="24" viewBox="0 0 24 24" fill="none" xmlns="http://www.w3.org/2000/svg">
<path d="M15.4 15.6298C13.9034 16.11 12.4186 16.1216 11.1643 15.663C9.91003 15.2044 8.9524 14.2997 8.43239 13.0821C7.91237 11.8646 7.85744 10.3984 8.27567 8.89946C8.69389 7.4005 9.56319 5.94791 10.7556 4.75548C11.9481 3.56304 13.4007 2.69374 14.8996 2.27551C16.3986 1.85729 17.8647 1.91222 19.0823 2.43224C20.2998 2.95225 21.2045 3.90988 21.6632 5.16418C22.1218 6.41848 22.1102 7.9032 21.63 9.39983C20.9352 9.00349 20.0543 8.90491 19.1354 9.12066C18.2165 9.33641 17.3158 9.85333 16.5846 10.5845C15.8535 11.3156 15.3366 12.2164 15.1208 13.1353C14.9051 14.0541 15.0036 14.935 15.4 15.6298Z" stroke="#4AAE9B" stroke-width="2" stroke-linecap="round" stroke-linejoin="round"/>
<path d="M8.29001 12.71L5.69001 15.31C5.37247 15.135 5.02068 15.0312 4.65903 15.0058C4.29739 14.9804 3.93454 15.0339 3.59564 15.1627C3.25674 15.2914 2.94991 15.4924 2.69641 15.7516C2.44291 16.0107 2.24881 16.3219 2.12757 16.6636C2.00634 17.0053 1.96086 17.3692 1.9943 17.7302C2.02774 18.0912 2.13929 18.4406 2.32122 18.7542C2.50315 19.0678 2.75111 19.3381 3.0479 19.5463C3.3447 19.7545 3.68322 19.8956 4.04001 19.96C4.11002 20.3121 4.25505 20.645 4.46525 20.9361C4.67545 21.2272 4.94588 21.4696 5.25814 21.6468C5.5704 21.824 5.91716 21.9318 6.27484 21.963C6.63252 21.9942 6.99272 21.948 7.33094 21.8275C7.66915 21.707 7.97745 21.5151 8.23486 21.2648C8.49226 21.0145 8.69274 20.7117 8.82264 20.377C8.95255 20.0423 9.00883 19.6835 8.98767 19.3251C8.96651 18.9667 8.8684 18.6171 8.70001 18.3L11.29 15.71" stroke="#4AAE9B" stroke-width="2" stroke-linecap="round" stroke-linejoin="round"/>
</svg>
