<svg
            width="48"
            height="48"
            viewBox="0 0 48 48"
            fill="none"
            xmlns="http://www.w3.org/2000/svg"
          >
            <path
              fill-rule="evenodd"
              clip-rule="evenodd"
              d="M48 24C48 31.2321 44.8012 37.717 39.7412 42.1172C35.5274 45.7815 30.0228 48 24 48C17.9772 48 12.4727 45.7815 8.2588 42.1172C3.19883 37.717 0 31.2321 0 24C0 10.7452 10.7452 0 24 0C37.2548 0 48 10.7452 48 24ZM24.0001 40.8C28.216 40.8 32.0692 39.2471 35.0189 36.682C35.3585 36.3867 35.6861 36.078 36.0008 35.7568C33.4067 31.5608 28.9999 28.8 24.0001 28.8C19.0002 28.8 14.5934 31.5608 11.9993 35.7568C12.3141 36.078 12.6417 36.3867 12.9812 36.682C15.9309 39.2471 19.7841 40.8 24.0001 40.8ZM24 24C27.9765 24 31.2 20.7765 31.2 16.8C31.2 12.8236 27.9765 9.6 24 9.6C20.0236 9.6 16.8 12.8236 16.8 16.8C16.8 20.7765 20.0236 24 24 24Z"
              fill="#28303F"
            />
          </svg>